<svg viewBox="0 0 64 64" xmlns="http://www.w3.org/2000/svg" role="img" aria-label="AI automation">
  <g fill="none" stroke="currentColor" stroke-width="1.6" stroke-linecap="round" stroke-linejoin="round">
    <!-- neural node graph connections -->
    <line x1="14" y1="18" x2="32" y2="14" />
    <line x1="14" y1="18" x2="30" y2="34" />
    <line x1="14" y1="46" x2="30" y2="34" />
    <line x1="14" y1="46" x2="32" y2="50" />
    <line x1="32" y1="14" x2="30" y2="34" />
    <line x1="32" y1="50" x2="30" y2="34" />
    <line x1="32" y1="14" x2="50" y2="24" />
    <line x1="30" y1="34" x2="50" y2="24" />
    <line x1="30" y1="34" x2="50" y2="44" />
    <line x1="32" y1="50" x2="50" y2="44" />
    <!-- nodes -->
    <circle cx="14" cy="18" r="3" />
    <circle cx="14" cy="46" r="3" />
    <circle cx="32" cy="14" r="3" />
    <circle cx="30" cy="34" r="3" />
    <circle cx="32" cy="50" r="3" />
    <circle cx="50" cy="24" r="3" />
    <!-- output node with subtle check -->
    <circle cx="50" cy="44" r="6" />
    <polyline points="47.4,44 49.3,45.9 52.8,42" />
  </g>
</svg>
