<svg viewBox="0 0 64 64" xmlns="http://www.w3.org/2000/svg" role="img" aria-label="Manufacturing automation">
  <g fill="none" stroke="currentColor" stroke-width="1.6" stroke-linecap="round" stroke-linejoin="round">
    <!-- bioreactor / process tank -->
    <path d="M20 18 H40 V46 a4 4 0 0 1 -4 4 H24 a4 4 0 0 1 -4 -4 Z" />
    <!-- liquid level line -->
    <line x1="20" y1="34" x2="40" y2="34" />
    <!-- top inlet -->
    <line x1="30" y1="18" x2="30" y2="12" />
    <line x1="26" y1="12" x2="34" y2="12" />
    <!-- agitator shaft + impeller -->
    <line x1="30" y1="22" x2="30" y2="30" />
    <line x1="26" y1="30" x2="34" y2="30" />
    <!-- connected process nodes / piping -->
    <line x1="40" y1="26" x2="50" y2="26" />
    <circle cx="53" cy="26" r="3" />
    <line x1="53" y1="29" x2="53" y2="44" />
    <circle cx="53" cy="47" r="3" />
    <line x1="50" y1="47" x2="40" y2="47" />
    <!-- base feet -->
    <line x1="24" y1="50" x2="24" y2="54" />
    <line x1="36" y1="50" x2="36" y2="54" />
  </g>
</svg>
